<svg width="165" height="42" viewBox="0 0 165 42" fill="none" xmlns="http://www.w3.org/2000/svg">
<g clip-path="url(#clip0_53598_1618)">
<path d="M37.7064 41.8108H36.1044L34.6522 31.912H35.9919L36.6196 36.9087C36.6852 37.4261 36.7492 37.9497 36.8117 38.4797C36.8773 39.0054 36.9397 39.5354 36.9991 40.0695H37.0365C37.1177 39.5354 37.1974 39.0054 37.2754 38.4797C37.3566 37.9497 37.4363 37.4261 37.5143 36.9087L38.409 31.912H39.5567L40.4514 36.9087C40.5357 37.4176 40.6169 37.9392 40.695 38.4733C40.7699 39.0033 40.8511 39.5354 40.9386 40.0695H40.9854C41.0385 39.5354 41.0947 39.0054 41.154 38.4797C41.2165 37.9497 41.2743 37.4261 41.3274 36.9087L41.9738 31.912H43.2245L41.8239 41.8108H40.1891L39.285 36.6122C39.2257 36.2294 39.1679 35.8509 39.1117 35.4766C39.0555 35.1022 39.0039 34.7216 38.9571 34.3347H38.9196C38.8728 34.7216 38.8197 35.1022 38.7604 35.4766C38.701 35.8509 38.6448 36.2294 38.5917 36.6122L37.7064 41.8108ZM48.9066 41.8108H44.3675V31.912H48.7941V33.4009H45.6838V35.9182H48.321V37.4071H45.6838V40.3282H48.9066V41.8108ZM57.0338 41.8108H52.6681V31.912H53.9797V40.3282H57.0338V41.8108ZM59.6289 41.8108H58.3173V31.912H59.6289V41.8108ZM62.8049 41.8108H61.4886V31.912H62.8049V36.404H62.833L65.4375 31.912H66.9037L64.6318 35.7731L67.2784 41.8108H65.8356L63.8495 37.1674L62.8049 38.9339V41.8108ZM72.7403 41.8108H68.2059V31.912H72.6326V33.4009H69.5175V35.9182H72.1548V37.4071H69.5175V40.3282H72.7403V41.8108ZM79.2983 41.8108H77.9727V33.4009H75.8647V31.912H81.4156V33.4009H79.2983V41.8108ZM85.1678 42.0001C84.5307 42.0001 83.9686 41.7898 83.4814 41.3692C82.9943 40.9528 82.6117 40.3576 82.3338 39.5837C82.059 38.8098 81.9216 37.8908 81.9216 36.8267C81.9216 35.7584 82.059 34.8436 82.3338 34.0823C82.6117 33.3252 82.9943 32.7448 83.4814 32.341C83.9686 31.9372 84.5307 31.7354 85.1678 31.7354C85.8111 31.7354 86.3748 31.9393 86.8588 32.3473C87.3429 32.7553 87.7223 33.3357 87.9971 34.0886C88.2719 34.8457 88.4093 35.7584 88.4093 36.8267C88.4093 37.8908 88.2719 38.8098 87.9971 39.5837C87.7223 40.3576 87.3429 40.9528 86.8588 41.3692C86.3748 41.7898 85.8111 42.0001 85.1678 42.0001ZM85.1678 40.4607C85.5519 40.4607 85.886 40.3114 86.1702 40.0127C86.4544 39.7141 86.6746 39.2914 86.8307 38.7446C86.9869 38.2021 87.0649 37.5627 87.0649 36.8267C87.0649 36.0864 86.9869 35.4513 86.8307 34.9214C86.6746 34.3872 86.4544 33.9792 86.1702 33.6974C85.886 33.4114 85.5519 33.2684 85.1678 33.2684C84.7805 33.2684 84.4448 33.4114 84.1607 33.6974C83.8765 33.9792 83.6579 34.3872 83.5048 34.9214C83.3518 35.4513 83.2753 36.0864 83.2753 36.8267C83.2753 37.5627 83.3518 38.2021 83.5048 38.7446C83.6579 39.2914 83.8765 39.7141 84.1607 40.0127C84.4448 40.3114 84.7805 40.4607 85.1678 40.4607ZM93.3232 41.8108H92.138V31.912H93.623L94.9158 36.751C94.9939 37.0538 95.0735 37.3714 95.1547 37.7036C95.2328 38.0317 95.3093 38.3577 95.3843 38.6815H95.4311C95.5123 38.3577 95.5904 38.0317 95.6653 37.7036C95.7434 37.3714 95.8183 37.0538 95.8902 36.751L97.1643 31.912H98.6445V41.8108H97.4407V37.3125C97.4407 37.0012 97.4516 36.6585 97.4734 36.2841C97.4922 35.914 97.5156 35.5418 97.5437 35.1674C97.5687 34.7931 97.5906 34.4545 97.6093 34.1517H97.5718L96.9722 36.4545L95.773 40.8897H94.9861L93.7822 36.4545L93.192 34.1517H93.1545C93.1795 34.4545 93.2045 34.7931 93.2295 35.1674C93.2513 35.5418 93.2732 35.914 93.2951 36.2841C93.3138 36.6585 93.3232 37.0012 93.3232 37.3125V41.8108ZM103.371 42.0001C102.734 42.0001 102.172 41.7898 101.685 41.3692C101.197 40.9528 100.816 40.3576 100.542 39.5837C100.267 38.8098 100.129 37.8908 100.129 36.8267C100.129 35.7584 100.267 34.8436 100.542 34.0823C100.816 33.3252 101.197 32.7448 101.685 32.341C102.172 31.9372 102.734 31.7354 103.371 31.7354C104.014 31.7354 104.578 31.9393 105.062 32.3473C105.546 32.7553 105.926 33.3357 106.2 34.0886C106.475 34.8457 106.613 35.7584 106.613 36.8267C106.613 37.8908 106.475 38.8098 106.2 39.5837C105.926 40.3576 105.546 40.9528 105.062 41.3692C104.578 41.7898 104.014 42.0001 103.371 42.0001ZM103.371 40.4607C103.755 40.4607 104.091 40.3114 104.378 40.0127C104.662 39.7141 104.882 39.2914 105.039 38.7446C105.195 38.2021 105.273 37.5627 105.273 36.8267C105.273 36.0864 105.195 35.4513 105.039 34.9214C104.882 34.3872 104.662 33.9792 104.378 33.6974C104.091 33.4114 103.755 33.2684 103.371 33.2684C102.987 33.2684 102.653 33.4114 102.369 33.6974C102.081 33.9792 101.861 34.3872 101.708 34.9214C101.558 35.4513 101.483 36.0864 101.483 36.8267C101.483 37.5627 101.558 38.2021 101.708 38.7446C101.861 39.2914 102.081 39.7141 102.369 40.0127C102.653 40.3114 102.987 40.4607 103.371 40.4607ZM110.8 41.8108H109.24L106.964 31.912H108.355L109.381 36.8835C109.5 37.4471 109.607 37.9833 109.704 38.4923C109.801 39.0012 109.909 39.5417 110.027 40.1137H110.074C110.202 39.5417 110.312 39.0012 110.402 38.4923C110.496 37.9833 110.602 37.4471 110.721 36.8835L111.737 31.912H113.072L110.8 41.8108ZM118.501 41.8108H113.967V31.912H118.394V33.4009H115.279V35.9182H117.916V37.4071H115.279V40.3282H118.501V41.8108ZM123.574 41.8108H122.263V31.912H123.574V41.8108ZM128.231 41.8108H126.91V33.4009H124.797V31.912H130.348V33.4009H128.231V41.8108Z" fill="#FAFCFC"/>
</g>
<g clip-path="url(#clip1_53598_1618)">
<path d="M3.80366 19.602H0L7.39652 8.81996L7.08267 11.2805L3.02138 1.10407H6.41282L9.23745 8.39725L7.84621 8.34678L12.7132 1.10407H16.3201L9.37798 11.2805L9.47635 8.8515L13.8281 19.602H10.3945L7.41526 11.8861L8.84865 11.9681L3.80366 19.602ZM22.1099 19.8165C21.2605 19.8165 20.5173 19.5957 19.8802 19.1541C19.2463 18.7124 18.7731 18.0311 18.4609 17.11C18.1454 16.1846 18.0346 14.9901 18.1283 13.5265C18.2063 11.8356 18.464 10.3657 18.9012 9.11648C19.3384 7.86309 19.9364 6.89361 20.6953 6.20804C21.4541 5.51826 22.3504 5.17336 23.3841 5.17336C24.2085 5.17336 24.9674 5.42572 25.6606 5.93044C26.3539 6.43096 26.9098 7.15228 27.3282 8.09442C27.7467 9.03656 27.9559 10.1869 27.9559 11.5454C27.9559 12.7231 27.806 13.8188 27.5062 14.8324C27.2033 15.8461 26.788 16.723 26.2602 17.4633C25.7293 18.2035 25.111 18.7797 24.4052 19.1919C23.6995 19.6083 22.9344 19.8165 22.1099 19.8165ZM17.6551 24.7312H14.5963L17.4584 5.38787H20.3627L19.9317 8.21429L19.2666 12.4413L18.8543 16.6683L17.6551 24.7312ZM21.7539 16.4097C22.3691 16.4097 22.9063 16.2099 23.3653 15.8103C23.8244 15.4149 24.1866 14.8703 24.4521 14.1763C24.7206 13.4781 24.8549 12.6621 24.8549 11.7284C24.8549 10.761 24.6457 9.99553 24.2272 9.43193C23.8088 8.86832 23.2139 8.58652 22.4425 8.58652C21.8554 8.58652 21.3261 8.7842 20.8545 9.17957C20.383 9.57493 20.016 10.1217 19.7537 10.8199C19.4914 11.5139 19.3602 12.3277 19.3602 13.2615C19.3602 14.2289 19.571 14.9964 19.9926 15.5643C20.4111 16.1279 20.9982 16.4097 21.7539 16.4097ZM31.9563 19.602H28.8975L30.9961 5.38787H33.9003L33.2914 9.43193L33.0197 8.27107C33.4881 7.12284 34.1017 6.3195 34.8606 5.86104C35.6195 5.40259 36.5282 5.17336 37.5869 5.17336L37.0388 8.98399C36.9076 8.96296 36.7874 8.94824 36.6781 8.93983C36.5657 8.93141 36.4501 8.92721 36.3315 8.92721C35.429 8.92721 34.6935 9.22794 34.1252 9.82939C33.5568 10.4266 33.1743 11.394 32.9775 12.7315L31.9563 19.602ZM42.9645 19.8165C41.8652 19.8165 40.9143 19.5515 40.1117 19.0216C39.306 18.4958 38.6814 17.7556 38.238 16.8008C37.7914 15.8503 37.5681 14.7315 37.5681 13.4444C37.5681 11.8588 37.8336 10.4456 38.3645 9.2048C38.8954 7.96404 39.6277 6.98194 40.5614 6.25851C41.4951 5.53508 42.571 5.17336 43.7889 5.17336C44.8226 5.17336 45.7126 5.43414 46.4589 5.95568C47.2022 6.47722 47.7799 7.19855 48.1921 8.11966C48.6044 9.04498 48.8105 10.1512 48.8105 11.4382C48.8105 11.8083 48.7949 12.1784 48.7636 12.5486C48.7293 12.9187 48.6871 13.272 48.6371 13.6085H39.9056L40.2195 11.1984H47.2038L45.9484 11.9429C46.0514 11.148 46.0186 10.4813 45.85 9.94295C45.6782 9.40879 45.4034 8.99661 45.0256 8.70639C44.6446 8.41618 44.1871 8.27107 43.653 8.27107C42.9848 8.27107 42.418 8.48558 41.9526 8.91459C41.4905 9.34781 41.1407 9.94295 40.9034 10.7C40.6691 11.4571 40.552 12.3109 40.552 13.2615C40.552 14.355 40.7769 15.171 41.2266 15.7094C41.6794 16.2435 42.3633 16.5106 43.2783 16.5106C43.8154 16.5106 44.3323 16.397 44.8288 16.1699C45.3253 15.9386 45.7501 15.6126 46.1029 15.192L47.3771 17.9112C46.765 18.5631 46.0764 19.0447 45.3113 19.356C44.5462 19.663 43.7639 19.8165 42.9645 19.8165ZM53.5182 19.8165C52.5907 19.8165 51.7179 19.6756 50.8997 19.3938C50.0815 19.112 49.4507 18.7587 49.0072 18.3339L50.183 15.3497C50.642 15.7535 51.201 16.0795 51.86 16.3276C52.522 16.5758 53.1872 16.6999 53.8555 16.6999C54.5737 16.6999 55.0968 16.5758 55.4247 16.3276C55.7495 16.0795 55.9119 15.7451 55.9119 15.3245C55.9119 14.988 55.7745 14.7357 55.4997 14.5674C55.2248 14.4034 54.8782 14.2688 54.4597 14.1637C54.0413 14.0543 53.5947 13.9302 53.12 13.7914C52.6422 13.6484 52.191 13.4507 51.7663 13.1984C51.3384 12.9418 50.9918 12.5717 50.7263 12.088C50.4578 11.6043 50.3235 10.965 50.3235 10.1701C50.3235 9.09755 50.5483 8.19116 50.998 7.45091C51.4509 6.71065 52.0786 6.14705 52.8811 5.7601C53.6868 5.36894 54.6003 5.17336 55.6215 5.17336C56.3522 5.17336 57.0642 5.28062 57.7575 5.49512C58.4508 5.70542 59.0394 5.99563 59.5235 6.36576L58.4274 9.37515C57.9277 8.95455 57.4077 8.66854 56.8675 8.51712C56.3241 8.36991 55.8041 8.29631 55.3076 8.29631C54.5862 8.29631 54.0663 8.43301 53.7477 8.70639C53.4261 8.97978 53.2652 9.30995 53.2652 9.6969C53.2652 10.0292 53.3995 10.2878 53.6681 10.4729C53.9367 10.658 54.2802 10.8073 54.6986 10.9208C55.1171 11.0386 55.5684 11.1627 56.0524 11.2931C56.5365 11.4277 56.9877 11.6211 57.4062 11.8735C57.8246 12.1301 58.1682 12.4918 58.4367 12.9586C58.7022 13.4255 58.8349 14.0543 58.8349 14.845C58.8349 15.9218 58.6038 16.8345 58.1416 17.5831C57.6763 18.3318 57.0455 18.8912 56.2491 19.2613C55.4497 19.6314 54.5394 19.8165 53.5182 19.8165ZM63.9361 19.8165C63.0086 19.8165 62.1358 19.6756 61.3176 19.3938C60.5025 19.112 59.8717 18.7587 59.4251 18.3339L60.6009 15.3497C61.0599 15.7535 61.6205 16.0795 62.2825 16.3276C62.9415 16.5758 63.6051 16.6999 64.2734 16.6999C64.9916 16.6999 65.5147 16.5758 65.8426 16.3276C66.1674 16.0795 66.3298 15.7451 66.3298 15.3245C66.3298 14.988 66.1924 14.7357 65.9176 14.5674C65.6459 14.4034 65.2992 14.2688 64.8776 14.1637C64.4592 14.0543 64.0126 13.9302 63.5379 13.7914C63.0601 13.6484 62.6089 13.4507 62.1842 13.1984C61.7563 12.9418 61.4097 12.5717 61.1442 12.088C60.8757 11.6043 60.7414 10.965 60.7414 10.1701C60.7414 9.09755 60.9662 8.19116 61.4159 7.45091C61.8688 6.71065 62.4964 6.14705 63.299 5.7601C64.1047 5.36894 65.0182 5.17336 66.0394 5.17336C66.7701 5.17336 67.4821 5.28062 68.1754 5.49512C68.8687 5.70542 69.4573 5.99563 69.9414 6.36576L68.8453 9.37515C68.3456 8.95455 67.8256 8.66854 67.2854 8.51712C66.742 8.36991 66.222 8.29631 65.7255 8.29631C65.0041 8.29631 64.4842 8.43301 64.1656 8.70639C63.844 8.97978 63.6831 9.30995 63.6831 9.6969C63.6831 10.0292 63.8174 10.2878 64.086 10.4729C64.3546 10.658 64.6981 10.8073 65.1165 10.9208C65.535 11.0386 65.9863 11.1627 66.4703 11.2931C66.9544 11.4277 67.4056 11.6211 67.8241 11.8735C68.2425 12.1301 68.586 12.4918 68.8546 12.9586C69.1201 13.4255 69.2528 14.0543 69.2528 14.845C69.2528 15.9218 69.0217 16.8345 68.5595 17.5831C68.0942 18.3318 67.4634 18.8912 66.667 19.2613C65.8676 19.6314 64.9573 19.8165 63.9361 19.8165ZM82.2845 19.602H79.1039L81.3196 4.59294H76.9257L77.455 1.10407H89.4234L88.8941 4.59294H84.5189L82.2845 19.602ZM91.2503 19.602H88.1868L90.2853 5.38787H93.1896L92.5806 9.43193L92.3089 8.27107C92.7805 7.12284 93.3941 6.3195 94.1499 5.86104C94.9087 5.40259 95.819 5.17336 96.8808 5.17336L96.3281 8.98399C96.2 8.96296 96.0798 8.94824 95.9674 8.93983C95.855 8.93141 95.741 8.92721 95.6254 8.92721C94.7229 8.92721 93.9859 9.22794 93.4144 9.82939C92.8461 10.4266 92.4635 11.394 92.2668 12.7315L91.2503 19.602ZM101.158 19.8165C100.293 19.8165 99.5462 19.5641 98.9185 19.0594C98.2908 18.5589 97.8458 17.825 97.5835 16.8576C97.3243 15.886 97.2993 14.6873 97.5085 13.2615L98.6655 5.38787H101.724L100.605 12.9965C100.449 14.0354 100.511 14.8366 100.792 15.4002C101.073 15.9638 101.574 16.2456 102.296 16.2456C103.055 16.2456 103.692 15.947 104.207 15.3497C104.722 14.7525 105.066 13.8356 105.238 12.599L106.315 5.38787H109.379L107.28 19.602H104.376L104.961 15.5895L105.392 16.8008C104.896 17.8397 104.276 18.6031 103.533 19.091C102.786 19.5747 101.995 19.8165 101.158 19.8165ZM115.693 19.8165C114.609 19.8165 113.665 19.5515 112.859 19.0216C112.056 18.4958 111.432 17.7556 110.985 16.8008C110.542 15.8503 110.32 14.7315 110.32 13.4444C110.32 11.8588 110.595 10.4456 111.145 9.2048C111.694 7.96404 112.451 6.98194 113.416 6.25851C114.385 5.53508 115.496 5.17336 116.752 5.17336C117.879 5.17336 118.855 5.48671 119.679 6.1134C120.501 6.74009 121.108 7.62546 121.502 8.76948L118.911 10.5171C118.689 9.84411 118.379 9.35412 117.979 9.04708C117.582 8.74004 117.109 8.58652 116.56 8.58652C115.957 8.58652 115.42 8.7842 114.948 9.17957C114.477 9.57493 114.103 10.1217 113.829 10.8199C113.554 11.5139 113.416 12.3193 113.416 13.2362C113.416 14.2036 113.63 14.9733 114.058 15.5453C114.483 16.1215 115.087 16.4097 115.871 16.4097C116.408 16.4097 116.898 16.254 117.342 15.9428C117.788 15.6358 118.162 15.1563 118.461 14.5043L120.719 16.4097C120.22 17.4822 119.529 18.3171 118.649 18.9143C117.765 19.5158 116.78 19.8165 115.693 19.8165ZM127.488 13.7094L124.781 16.7503L125.446 11.6527L131.114 5.38787H135.1L129.193 12.0186L127.488 13.7094ZM124.781 19.602H121.717L124.621 0H127.68L124.781 19.602ZM133.217 19.602H129.662L126.954 13.6337L129.095 10.4855L133.217 19.602ZM139.981 19.8165C138.885 19.8165 137.934 19.5515 137.128 19.0216C136.326 18.4958 135.701 17.7556 135.255 16.8008C134.811 15.8503 134.589 14.7315 134.589 13.4444C134.589 11.8588 134.853 10.4456 135.381 9.2048C135.912 7.96404 136.644 6.98194 137.578 6.25851C138.515 5.53508 139.591 5.17336 140.806 5.17336C141.839 5.17336 142.729 5.43414 143.476 5.95568C144.222 6.47722 144.801 7.19855 145.214 8.11966C145.626 9.04498 145.832 10.1512 145.832 11.4382C145.832 11.8083 145.815 12.1784 145.78 12.5486C145.749 12.9187 145.707 13.272 145.654 13.6085H136.922L137.236 11.1984H144.22L142.965 11.9429C143.071 11.148 143.038 10.4813 142.867 9.94295C142.698 9.40879 142.423 8.99661 142.042 8.70639C141.664 8.41618 141.207 8.27107 140.67 8.27107C140.001 8.27107 139.436 8.48558 138.974 8.91459C138.509 9.34781 138.159 9.94295 137.925 10.7C137.687 11.4571 137.569 12.3109 137.569 13.2615C137.569 14.355 137.795 15.171 138.248 15.7094C138.698 16.2435 139.382 16.5106 140.3 16.5106C140.834 16.5106 141.349 16.397 141.845 16.1699C142.345 15.9386 142.771 15.6126 143.124 15.192L144.398 17.9112C143.783 18.5631 143.093 19.0447 142.328 19.356C141.563 19.663 140.781 19.8165 139.981 19.8165ZM149.753 19.602H146.694L148.792 5.38787H151.697L151.088 9.43193L150.811 8.27107C151.283 7.12284 151.898 6.3195 152.657 5.86104C153.416 5.40259 154.324 5.17336 155.383 5.17336L154.835 8.98399C154.704 8.96296 154.584 8.94824 154.474 8.93983C154.362 8.93141 154.246 8.92721 154.128 8.92721C153.225 8.92721 152.49 9.22794 151.921 9.82939C151.353 10.4266 150.971 11.394 150.774 12.7315L149.753 19.602ZM158.995 19.8165C158.067 19.8165 157.194 19.6756 156.376 19.3938C155.558 19.112 154.927 18.7587 154.484 18.3339L155.66 15.3497C156.119 15.7535 156.678 16.0795 157.336 16.3276C157.999 16.5758 158.662 16.6999 159.327 16.6999C160.049 16.6999 160.572 16.5758 160.897 16.3276C161.224 16.0795 161.388 15.7451 161.388 15.3245C161.388 14.988 161.251 14.7357 160.976 14.5674C160.701 14.4034 160.355 14.2688 159.936 14.1637C159.518 14.0543 159.07 13.9302 158.592 13.7914C158.114 13.6484 157.663 13.4507 157.238 13.1984C156.813 12.9418 156.467 12.5717 156.198 12.088C155.93 11.6043 155.795 10.965 155.795 10.1701C155.795 9.09755 156.022 8.19116 156.475 7.45091C156.924 6.71065 157.552 6.14705 158.358 5.7601C159.16 5.36894 160.072 5.17336 161.093 5.17336C161.827 5.17336 162.541 5.28062 163.234 5.49512C163.927 5.70542 164.516 5.99563 165 6.36576L163.899 9.37515C163.403 8.95455 162.883 8.66854 162.339 8.51712C161.796 8.36991 161.276 8.29631 160.779 8.29631C160.061 8.29631 159.541 8.43301 159.22 8.70639C158.901 8.97978 158.742 9.30995 158.742 9.6969C158.742 10.0292 158.874 10.2878 159.14 10.4729C159.409 10.658 159.752 10.8073 160.17 10.9208C160.589 11.0386 161.04 11.1627 161.524 11.2931C162.008 11.4277 162.46 11.6211 162.878 11.8735C163.296 12.1301 163.64 12.4918 163.909 12.9586C164.177 13.4255 164.311 14.0543 164.311 14.845C164.311 15.9218 164.079 16.8345 163.613 17.5831C163.151 18.3318 162.52 18.8912 161.721 19.2613C160.925 19.6314 160.016 19.8165 158.995 19.8165Z" fill="#FD660F"/>
</g>
<defs>
<clipPath id="clip0_53598_1618">
<rect width="95.6957" height="10.2647" fill="white" transform="translate(34.6522 31.7354)"/>
</clipPath>
<clipPath id="clip1_53598_1618">
<rect width="165" height="24.7312" fill="white"/>
</clipPath>
</defs>
</svg>
