<svg width="133" height="126" viewBox="0 0 133 126" fill="none" xmlns="http://www.w3.org/2000/svg">
<g clip-path="url(#clip0_53610_1124)">
<path d="M81.3423 1.01901V4.337L127.315 24.3098L81.3423 1.01901Z" fill="#11024D"/>
<path d="M81.3423 11.353V13.5217L127.315 31.9189L81.3423 11.353Z" fill="#11024D"/>
<path d="M81.3423 21.6684V22.7342L126.627 39.5744L81.3423 21.6684Z" fill="#11024D"/>
<path d="M81.3423 31.4741V32.5306L125.538 48.3513L81.3423 31.4741Z" fill="#11024D"/>
<path d="M81.5191 61.753C81.5191 61.753 81.4819 61.6974 81.4632 61.6696C80.8489 60.8076 80.1694 60.0755 79.4434 59.473V0.5L26.6752 10.4725L26.5728 20.4265L9.9484 23.5683C9.24098 24.3932 8.41255 27.1088 7.60274 30.4268V30.1951C7.60274 29.5741 6.98839 29.1385 6.40198 29.3424L4.22386 30.0838C3.42336 30.3526 2.89279 31.1033 2.89279 31.9467V43.8192H4.75443C4.52172 44.9962 4.31694 45.9601 4.16801 46.6182L3.12549 53.6156L3.03241 59.3896L2.88348 65.4324L2.86486 66.2666L2.41807 69.4826L1.28247 70.6504L1.83165 76.0166L4.52172 78.7785L10.3487 79.9741C11.6239 84.3765 14.1371 87.3608 17.0319 87.3608C17.0506 87.3608 17.0692 87.3608 17.0878 87.3608C16.1942 86.2857 15.403 84.9326 14.7794 83.3477C15.4309 84.8213 16.25 86.0169 17.1809 86.8881C17.3391 87.0364 17.4973 87.1754 17.6649 87.3052C17.6835 87.3237 17.7114 87.3423 17.7301 87.3608H18.484C18.4282 87.2959 18.3723 87.2218 18.3165 87.1569C17.9069 86.6472 17.5253 86.0818 17.1809 85.4609C16.8085 84.8121 16.4734 84.1077 16.1756 83.3477C16.4734 84.0243 16.8178 84.6452 17.1809 85.2106C17.6463 85.915 18.1582 86.5267 18.7074 87.0179C18.847 87.1384 18.9867 87.2589 19.1263 87.3701H19.8989C19.722 87.1569 19.5451 86.9252 19.3683 86.6842C18.6888 85.7389 18.0838 84.6174 17.5811 83.357C18.1489 84.6267 18.8377 85.7018 19.6103 86.5359C19.9082 86.8511 20.2153 87.1384 20.5318 87.3793H21.0903C20.7645 86.9901 20.4573 86.573 20.1688 86.1096C19.6475 85.294 19.1821 84.3765 18.7819 83.357C19.2287 84.3579 19.7499 85.2384 20.3363 85.9706C20.7738 86.5174 21.2392 86.9994 21.7326 87.3793H22.4121C22.1701 87.092 21.9374 86.7769 21.7046 86.4433C21.4626 86.0818 21.2206 85.6925 20.9972 85.294C20.6714 84.7009 20.3643 84.0521 20.0943 83.3662C20.3922 84.0336 20.718 84.6452 21.081 85.1921C21.5185 85.8686 22.0118 86.4525 22.5238 86.9345C22.6913 87.092 22.8682 87.2403 23.045 87.3793H24.4226C27.1779 87.3793 29.598 84.6545 30.9198 80.5858H52.3938L49.3127 74.9415V69.5011L52.0307 68.4168L52.1517 67.4807L52.7475 64.5612L53.3432 49.5469L54.4788 46.1826L54.2554 19.9167L53.5201 17.9889L75.627 22.002V22.0206L77.7958 50.863L77.6097 58.3609C76.7812 57.9901 75.9156 57.7862 75.0127 57.7862C73.4954 57.7862 72.062 58.3516 70.7774 59.3618C70.4796 59.5935 70.2003 59.8438 69.9211 60.1218C69.7256 60.3164 69.5301 60.5296 69.3347 60.7428C69.0461 61.0764 68.7669 61.4379 68.5062 61.8179C68.4225 61.9384 68.3387 62.0588 68.2549 62.1886C67.7337 62.9764 67.2683 63.8661 66.8494 64.8207C66.2257 66.2666 65.7231 67.8792 65.388 69.6216C65.2949 70.085 65.2205 70.567 65.146 71.0489C65.8348 71.0489 66.4491 70.7431 66.8494 70.2611C66.9239 70.1684 66.989 70.0758 67.0449 69.9738C67.0635 69.946 67.0821 69.9182 67.0914 69.8904C67.1379 69.7885 67.1752 69.6865 67.2124 69.5846C67.473 68.6763 67.7802 67.8051 68.1246 66.9895C68.6738 65.7012 69.3161 64.552 70.0421 63.5603C70.554 62.8652 71.1032 62.2535 71.6896 61.7437C72.1364 61.3545 72.5925 61.0115 73.0766 60.7335C73.6537 60.3998 74.2494 60.1496 74.873 60.0013C75.3478 59.8808 75.8411 59.8252 76.3437 59.8252C76.5206 59.8252 76.6974 59.8345 76.8743 59.853C77.7586 59.9272 78.6056 60.1959 79.4155 60.6316C79.8716 60.8725 80.309 61.1691 80.7279 61.5213C80.7651 61.5491 80.8024 61.5862 80.8396 61.614C81.4074 62.0959 81.9473 62.6613 82.4499 63.31L84.1254 66.7114L109.351 70.9099C110.039 69.3065 110.905 68.8709 112.19 68.769L81.4912 61.7623L81.5191 61.753ZM4.18663 65.5066L4.06562 59.4916H6.38336C7.29556 59.4916 8.10538 60.0569 8.42186 60.9096L8.99896 62.4944L9.01758 62.5871C9.01758 62.5871 9.01758 62.5593 9.01758 62.5408L10.4976 66.6002L4.19594 65.5066H4.18663ZM37.5193 74.6171H12.4802L11.1771 67.9534H13.3831L13.3459 68.2407H34.9874L34.9223 67.8236L38.3849 67.8051L37.5193 74.6264V74.6171ZM50.4856 64.8949L40.1256 66.6002L42.2013 60.9096C42.5085 60.0569 43.3276 59.4916 44.2398 59.4916H52.0587L50.4949 64.8949H50.4856ZM51.677 56.3497L43.6068 57.5916C42.2478 57.7955 41.0843 58.6667 40.5165 59.9179C38.8038 63.6622 38.3849 66.2666 38.3849 66.2666L34.7082 66.5353L34.55 65.59H13.7089L13.5227 66.9524L11.7635 66.8227L9.86463 60.7613C9.45507 59.4452 8.31016 58.4906 6.94185 58.3145L4.18663 57.9531L4.76374 51.8268L10.6 53.421C17.5253 53.7083 27.485 53.4858 38.3756 51.8917C40.6375 51.5581 42.7412 50.4737 47.749 49.723L52.1145 48.3513L51.677 56.3589V56.3497ZM52.3845 21.066V21.1586C52.2914 22.4006 52.2448 23.6888 52.2262 24.9956C52.2169 25.3108 52.2169 25.6166 52.2169 25.941C52.2262 28.9902 52.3844 32.0579 52.3379 34.5047C52.3472 34.5974 52.3472 34.6994 52.3379 34.7828C52.3658 38.0266 52.2541 40.5846 51.6026 41.567C49.5827 44.5514 37.5844 48.1752 26.275 49.7322C16.9575 51.0112 8.09607 50.8908 5.67594 47.8508C5.73179 47.6562 5.89003 46.683 6.14135 45.2279C6.21581 44.8016 6.29959 44.3289 6.38336 43.8285C6.71846 41.8914 7.13732 39.4446 7.59342 36.9515C8.38462 32.5955 9.2689 28.0819 9.93909 25.7742C11.1305 25.3386 18.3723 24.0503 26.5449 22.7898C34.8757 21.5016 44.1839 20.2504 49.0614 19.9723C50.4297 19.9074 51.4443 19.9074 52.0028 19.9909C52.1238 20.0001 52.2169 20.0187 52.3007 20.0557C52.3286 20.2318 52.3565 20.3894 52.3658 20.584C52.3751 20.723 52.3845 20.8713 52.3845 21.0381V21.0752V21.066Z" fill="#11024D"/>
<path d="M123.341 72.5689L132.5 73.3938L122.131 71.0211C122.605 71.4845 123.015 71.9943 123.341 72.5596V72.5689Z" fill="#11024D"/>
<path d="M83.3435 72.5133C82.9991 70.3445 82.3941 68.389 81.5936 66.7578C80.1229 63.7549 77.9913 61.8735 75.6271 61.8735C75.385 61.8735 75.143 61.9013 74.9103 61.9384C74.0912 62.0681 73.3093 62.4296 72.5833 62.9764C72.3506 63.1525 72.1272 63.3471 71.9038 63.5603C70.4052 65.0061 69.1858 67.2953 68.4318 70.0943C67.8919 72.0962 67.5848 74.3669 67.5848 76.7674V78.3522C67.5848 78.9732 67.3241 79.5385 66.9053 79.9463C66.505 80.3356 65.9465 80.5858 65.3415 80.5858H61.0132C62.3349 84.6545 64.7551 87.3793 67.5103 87.3793C67.5289 87.3793 67.5475 87.3793 67.5662 87.3793C66.6726 86.3042 65.8814 84.9511 65.2577 83.3662C65.9093 84.8399 66.7284 86.0355 67.6592 86.9067C67.8175 87.055 67.9757 87.194 68.1433 87.3237C68.1619 87.3423 68.1898 87.3608 68.2084 87.3793H68.9624C68.9065 87.3145 68.8507 87.2403 68.7948 87.1754C68.3946 86.6657 68.0036 86.1003 67.6592 85.4794C67.2869 84.8306 66.9518 84.1262 66.654 83.3662C66.9518 84.0428 67.2962 84.6638 67.6592 85.2291C68.1246 85.9335 68.6366 86.5452 69.1858 87.0364C69.3254 87.1569 69.465 87.2774 69.6046 87.3886H70.3772C70.2004 87.1754 70.0235 86.9437 69.8467 86.7028C69.1672 85.7574 68.5621 84.636 68.0595 83.3755C68.6273 84.6453 69.3161 85.7204 70.0887 86.5545C70.3865 86.8696 70.6937 87.1569 71.0102 87.3979H71.5687C71.2429 87.0086 70.9357 86.5915 70.6472 86.1281C70.1259 85.3125 69.6605 84.395 69.2602 83.3755C69.707 84.3765 70.2283 85.2569 70.8147 85.9891C71.2522 86.5359 71.7176 87.0179 72.2109 87.3979H72.8904C72.6484 87.1106 72.4157 86.7954 72.183 86.4618C71.941 86.1003 71.699 85.7111 71.4756 85.3126C71.1498 84.7194 70.8426 84.0706 70.5727 83.3848C70.8706 84.0521 71.1963 84.6638 71.5594 85.2106C71.9969 85.8872 72.4902 86.4711 73.0021 86.953C73.1697 87.1106 73.3465 87.2589 73.5234 87.3979H74.901C77.6562 87.3979 80.0764 84.6731 81.3981 80.6044H83.9672C83.9672 80.5302 83.6693 77.0639 83.6693 76.7952C83.6693 75.3123 83.5483 73.885 83.3342 72.5411L83.3435 72.5133ZM76.6882 79.5849C77.5818 78.2966 78.1682 76.2854 78.1682 74.0333C78.1682 73.1899 78.0844 72.3928 77.9355 71.6421C77.7214 70.5484 77.3677 69.5846 76.9116 68.8153C77.2839 69.6124 77.5538 70.5577 77.7028 71.605C77.7865 72.1796 77.8331 72.7728 77.8331 73.3938C77.8331 76.1835 76.9581 78.5839 75.6922 79.7331C76.651 78.4541 77.2746 76.3781 77.2746 74.0333C77.2746 73.1342 77.1815 72.2816 77.014 71.4938C76.7999 70.465 76.4555 69.5475 76.018 68.8153C76.3717 69.5753 76.6323 70.4743 76.7906 71.4567C76.8837 72.0684 76.9395 72.7265 76.9395 73.3938C76.9395 76.6561 75.7387 79.4088 74.1098 80.2058C74.0912 80.2058 74.0819 80.2244 74.0633 80.2244C72.3692 79.5107 71.1033 76.7117 71.1033 73.3659C71.1033 72.3743 71.215 71.4382 71.4104 70.5855C71.8945 68.528 72.8811 66.9802 74.0912 66.489C74.3518 66.3871 74.6218 66.3314 74.901 66.3314C76.6975 66.3314 78.2054 68.6485 78.6057 71.7533C78.6708 72.2723 78.7081 72.8099 78.7081 73.3659C78.7081 76.063 77.8889 78.3985 76.6882 79.5849Z" fill="#11024D"/>
<path d="M74.417 67.6661C74.417 67.6661 74.3239 67.6475 74.2774 67.6475C73.5048 67.6475 72.8439 68.9172 72.5274 70.7616C72.3971 71.5031 72.3226 72.3279 72.3226 73.2177C72.3226 76.2947 73.1976 78.7878 74.2774 78.7878C74.3518 78.7878 74.417 78.7785 74.4914 78.7507C75.4688 78.4541 76.2321 76.0908 76.2321 73.2177C76.2321 72.5596 76.1855 71.9294 76.1204 71.3455C75.8691 69.3065 75.2082 67.8236 74.417 67.6661Z" fill="#11024D"/>
<path d="M119.189 70.6597C118.901 70.6411 118.761 70.6226 118.715 70.6133C118.463 70.6319 118.231 70.6875 118.007 70.7987C117.886 70.8543 117.775 70.9192 117.663 71.0026C117.421 71.1787 117.207 71.4011 117.002 71.6699C116.927 71.7718 116.862 71.8738 116.788 71.985C116.574 72.3372 116.388 72.745 116.22 73.1991C115.671 74.7191 115.42 76.7581 115.42 78.8897C115.42 79.4736 115.447 80.039 115.531 80.5858H110.849C111.277 84.0057 112.897 86.573 114.852 86.7306H115.038H116.025C115.978 86.6842 115.941 86.6194 115.904 86.573C115.503 86.0633 115.15 85.4516 114.842 84.7565C114.796 84.6545 114.749 84.5526 114.712 84.4506C114.759 84.5526 114.805 84.6452 114.842 84.7379C115.196 85.4608 115.624 86.054 116.099 86.4896C116.192 86.573 116.285 86.6564 116.388 86.7398H116.704C116.602 86.6101 116.499 86.4711 116.397 86.332C116.015 85.7945 115.671 85.1735 115.392 84.4506C115.708 85.1643 116.099 85.7667 116.537 86.2394C116.704 86.4247 116.89 86.5916 117.076 86.7306H117.467C117.328 86.5638 117.197 86.3876 117.067 86.2023C117.011 86.1189 116.965 86.0355 116.909 85.9521C116.63 85.5072 116.369 85.0067 116.155 84.4506C116.397 84.9974 116.676 85.4701 116.993 85.8779C117.17 86.1003 117.346 86.3042 117.542 86.4803C117.635 86.573 117.737 86.6564 117.84 86.7306H118.622C120.66 86.7306 122.373 84.0984 122.82 80.5765H123.462C123.546 80.039 123.574 79.4644 123.574 78.8805C123.574 76.3132 122.866 73.9591 121.796 72.4299C121.06 71.3826 120.157 70.7153 119.189 70.6597ZM120.548 80.5858C120.344 81.318 120.027 81.9297 119.627 82.3097C119.934 81.8648 120.185 81.2717 120.325 80.5858C120.418 80.1409 120.474 79.659 120.474 79.1492C120.474 77.9722 120.195 76.9156 119.757 76.1835C120.083 76.8878 120.278 77.7961 120.278 78.7878C120.278 79.4366 120.195 80.0483 120.046 80.5858C119.794 81.5034 119.366 82.217 118.836 82.5599C118.696 82.6526 118.556 82.7175 118.407 82.7545C117.654 82.6155 117.021 81.7721 116.695 80.5858C116.648 80.4283 116.611 80.2614 116.583 80.0946C116.62 80.2707 116.658 80.4375 116.704 80.5858C116.974 81.5034 117.449 82.1151 117.989 82.1151C118.529 82.1151 118.957 81.5497 119.236 80.697C119.245 80.66 119.264 80.6229 119.273 80.5858C119.431 80.0668 119.515 79.4458 119.515 78.7693C119.515 78.0556 119.413 77.3883 119.236 76.8415C118.957 75.9888 118.501 75.4235 117.989 75.4235C117.402 75.4235 116.89 76.1557 116.639 77.2215C116.965 75.7849 117.728 74.7654 118.631 74.7654C118.687 74.7654 118.733 74.7654 118.789 74.784C119.906 74.9323 120.79 76.6561 120.79 78.7693C120.79 79.418 120.707 80.039 120.558 80.5858H120.548Z" fill="#11024D"/>
<path d="M51.0999 21.5201C51.0255 21.483 50.9324 21.4645 50.8114 21.4552C50.2808 21.3811 49.3035 21.3811 48.0003 21.4367C43.3276 21.7055 34.4103 22.901 26.4332 24.1337C18.605 25.3386 11.6704 26.5805 10.5255 26.9975C9.88325 29.2126 9.03621 33.5408 8.27294 37.7115C7.83545 40.1027 7.4352 42.4475 7.10941 44.3011C7.02564 44.7831 6.95117 45.2279 6.87671 45.6357C6.9791 45.7099 7.08149 45.784 7.19318 45.8582C10.2649 47.8415 18.0465 47.8415 26.2005 46.8406C35.6204 45.6821 45.5243 43.1982 49.2104 40.8905C49.7596 40.5475 50.1784 40.2046 50.4297 39.8802C50.9417 39.2129 51.1092 37.6652 51.1372 35.6354C51.1465 35.5613 51.1465 35.4593 51.1372 35.3667C51.1744 33.0218 51.0255 30.0838 51.0162 27.1644C51.0162 26.8585 51.0162 26.5712 51.0255 26.2654C51.0255 24.9864 51.0627 23.7074 51.1744 22.5025V22.4654C51.1744 22.3079 51.1651 22.1689 51.1558 22.0391C51.1465 21.8537 51.1279 21.6962 51.0999 21.5386V21.5201Z" fill="#11024D"/>
<path d="M55.9774 55.9512L65.1832 55.7102L70.2841 47.165H57.1875L55.9774 55.9512Z" fill="#11024D"/>
<path d="M62.9027 73.885L59.9148 73.7367L56.2753 73.542L54.6091 78.5005L60.4268 78.4541L62.819 78.4263L62.9027 73.885Z" fill="#11024D"/>
<path d="M64.6527 43.1055C64.6061 43.6431 64.15 44.0694 63.5915 44.0694H55.7913V44.9592H64.7737C65.3322 44.9592 65.779 44.5328 65.8348 43.9953H70.2934L68.3015 23.4942L56.5452 21.2791L57.234 42.4382L59.468 42.1046V24.0874C59.468 23.5035 59.9427 23.0215 60.5384 23.0215H63.6008C64.1314 23.0215 64.5689 23.4108 64.6527 23.9113C64.6527 23.9669 64.6713 24.0225 64.6713 24.0874V42.9943C64.6713 42.9943 64.6713 43.0592 64.662 43.087L64.6527 43.1055Z" fill="#11024D"/>
<path d="M88.9843 76.0259L86.1732 72.4855L86.4339 77.0083H86.4525L86.5455 79.937L109.993 79.9834L109.248 78.0278L88.9843 76.0259Z" fill="#11024D"/>
<path d="M132.5 86.7398L0.50061 90.2247L13.318 87.3515L132.5 86.7398Z" fill="#11024D"/>
</g>
<path d="M30.665 125.388H29.3834L28.2217 119.534H29.2934L29.7956 122.489C29.8481 122.795 29.8993 123.104 29.9493 123.418C30.0017 123.729 30.0517 124.042 30.0991 124.358H30.1291C30.1941 124.042 30.2578 123.729 30.3202 123.418C30.3852 123.104 30.4489 122.795 30.5114 122.489L31.2271 119.534H32.1453L32.861 122.489C32.9285 122.79 32.9934 123.098 33.0559 123.414C33.1158 123.728 33.1808 124.042 33.2508 124.358H33.2882C33.3307 124.042 33.3757 123.729 33.4231 123.418C33.4731 123.104 33.5193 122.795 33.5618 122.489L34.0789 119.534H35.0795L33.959 125.388H32.6512L31.9279 122.313C31.8804 122.087 31.8342 121.863 31.7892 121.642C31.7443 121.42 31.7031 121.195 31.6656 120.966H31.6356C31.5981 121.195 31.5557 121.42 31.5082 121.642C31.4607 121.863 31.4158 122.087 31.3733 122.313L30.665 125.388ZM39.6252 125.388H35.9939V119.534H39.5352V120.414H37.0469V121.903H39.1567V122.784H37.0469V124.511H39.6252V125.388ZM46.127 125.388H42.6344V119.534H43.6836V124.511H46.127V125.388ZM48.2031 125.388H47.1538V119.534H48.2031V125.388ZM50.7438 125.388H49.6908V119.534H50.7438V122.19H50.7663L52.8499 119.534H54.0228L52.2053 121.817L54.3226 125.388H53.1684L51.5795 122.642L50.7438 123.687V125.388ZM58.6922 125.388H55.0646V119.534H58.606V120.414H56.1139V121.903H58.2237V122.784H56.1139V124.511H58.6922V125.388ZM63.9386 125.388H62.8781V120.414H61.1917V119.534H65.6324V120.414H63.9386V125.388ZM68.6341 125.5C68.1245 125.5 67.6748 125.376 67.285 125.127C66.8953 124.881 66.5893 124.529 66.3669 124.071C66.1471 123.613 66.0371 123.07 66.0371 122.44C66.0371 121.808 66.1471 121.267 66.3669 120.817C66.5893 120.369 66.8953 120.026 67.285 119.787C67.6748 119.549 68.1245 119.429 68.6341 119.429C69.1488 119.429 69.5997 119.55 69.987 119.791C70.3742 120.032 70.6777 120.376 70.8976 120.821C71.1174 121.269 71.2274 121.808 71.2274 122.44C71.2274 123.07 71.1174 123.613 70.8976 124.071C70.6777 124.529 70.3742 124.881 69.987 125.127C69.5997 125.376 69.1488 125.5 68.6341 125.5ZM68.6341 124.59C68.9414 124.59 69.2087 124.501 69.4361 124.325C69.6634 124.148 69.8396 123.898 69.9645 123.575C70.0894 123.254 70.1518 122.876 70.1518 122.44C70.1518 122.003 70.0894 121.627 69.9645 121.313C69.8396 120.998 69.6634 120.756 69.4361 120.59C69.2087 120.42 68.9414 120.336 68.6341 120.336C68.3243 120.336 68.0558 120.42 67.8284 120.59C67.6011 120.756 67.4262 120.998 67.3038 121.313C67.1814 121.627 67.1202 122.003 67.1202 122.44C67.1202 122.876 67.1814 123.254 67.3038 123.575C67.4262 123.898 67.6011 124.148 67.8284 124.325C68.0558 124.501 68.3243 124.59 68.6341 124.59ZM75.1584 125.388H74.2103V119.534H75.3983L76.4326 122.396C76.495 122.575 76.5587 122.762 76.6237 122.959C76.6861 123.153 76.7473 123.346 76.8073 123.537H76.8448C76.9097 123.346 76.9722 123.153 77.0321 122.959C77.0946 122.762 77.1546 122.575 77.212 122.396L78.2313 119.534H79.4155V125.388H78.4524V122.728C78.4524 122.544 78.4612 122.341 78.4787 122.119C78.4937 121.901 78.5124 121.68 78.5349 121.459C78.5549 121.238 78.5723 121.037 78.5873 120.858H78.5574L78.0777 122.22L77.1183 124.843H76.4888L75.5257 122.22L75.0535 120.858H75.0235C75.0435 121.037 75.0635 121.238 75.0835 121.459C75.101 121.68 75.1185 121.901 75.1359 122.119C75.1509 122.341 75.1584 122.544 75.1584 122.728V125.388ZM83.1967 125.5C82.687 125.5 82.2374 125.376 81.8476 125.127C81.4579 124.881 81.1531 124.529 80.9332 124.071C80.7134 123.613 80.6035 123.07 80.6035 122.44C80.6035 121.808 80.7134 121.267 80.9332 120.817C81.1531 120.369 81.4579 120.026 81.8476 119.787C82.2374 119.549 82.687 119.429 83.1967 119.429C83.7113 119.429 84.1623 119.55 84.5495 119.791C84.9368 120.032 85.2403 120.376 85.4602 120.821C85.68 121.269 85.7899 121.808 85.7899 122.44C85.7899 123.07 85.68 123.613 85.4602 124.071C85.2403 124.529 84.9368 124.881 84.5495 125.127C84.1623 125.376 83.7113 125.5 83.1967 125.5ZM83.1967 124.59C83.504 124.59 83.7726 124.501 84.0024 124.325C84.2297 124.148 84.4059 123.898 84.5308 123.575C84.6557 123.254 84.7182 122.876 84.7182 122.44C84.7182 122.003 84.6557 121.627 84.5308 121.313C84.4059 120.998 84.2297 120.756 84.0024 120.59C83.7726 120.42 83.504 120.336 83.1967 120.336C82.8894 120.336 82.6221 120.42 82.3947 120.59C82.1649 120.756 81.9888 120.998 81.8664 121.313C81.7464 121.627 81.6865 122.003 81.6865 122.44C81.6865 122.876 81.7464 123.254 81.8664 123.575C81.9888 123.898 82.1649 124.148 82.3947 124.325C82.6221 124.501 82.8894 124.59 83.1967 124.59ZM89.1401 125.388H87.8922L86.071 119.534H87.184L88.0047 122.474C88.0996 122.807 88.1858 123.124 88.2632 123.425C88.3407 123.726 88.4269 124.046 88.5218 124.384H88.5593C88.6617 124.046 88.7492 123.726 88.8216 123.425C88.8966 123.124 88.9815 122.807 89.0764 122.474L89.8896 119.534H90.9577L89.1401 125.388ZM95.3009 125.388H91.6734V119.534H95.2148V120.414H92.7227V121.903H94.8325V122.784H92.7227V124.511H95.3009V125.388ZM99.3594 125.388H98.3101V119.534H99.3594V125.388ZM103.084 125.388H102.028V120.414H100.338V119.534H104.778V120.414H103.084V125.388Z" fill="#F3F3F3"/>
<g clip-path="url(#clip1_53610_1124)">
<path d="M3.54292 112.253H0.5L6.41721 105.876L6.16614 107.332L2.9171 101.313H5.63025L7.88996 105.626L6.77697 105.597L10.6706 101.313H13.5561L8.00238 107.332L8.08108 105.895L11.5625 112.253H8.81558L6.4322 107.69L7.57892 107.738L3.54292 112.253ZM18.1879 112.38C17.5084 112.38 16.9138 112.249 16.4042 111.988C15.897 111.727 15.5185 111.324 15.2687 110.779C15.0164 110.232 14.9277 109.526 15.0026 108.66C15.0651 107.66 15.2712 106.791 15.6209 106.052C15.9707 105.31 16.4491 104.737 17.0562 104.332C17.6633 103.924 18.3803 103.72 19.2072 103.72C19.8668 103.72 20.4739 103.869 21.0285 104.167C21.5831 104.463 22.0278 104.89 22.3626 105.447C22.6974 106.004 22.8647 106.685 22.8647 107.488C22.8647 108.185 22.7448 108.833 22.505 109.432C22.2627 110.032 21.9304 110.55 21.5082 110.988C21.0835 111.426 20.5888 111.767 20.0242 112.011C19.4596 112.257 18.8475 112.38 18.1879 112.38ZM14.6241 115.287H12.177L14.4667 103.847H16.7901L16.4454 105.518L15.9132 108.018L15.5835 110.518L14.6241 115.287ZM17.9031 110.365C18.3953 110.365 18.825 110.247 19.1923 110.011C19.5595 109.777 19.8493 109.455 20.0617 109.044C20.2765 108.631 20.3839 108.149 20.3839 107.597C20.3839 107.024 20.2166 106.572 19.8818 106.238C19.547 105.905 19.0711 105.738 18.454 105.738C17.9843 105.738 17.5609 105.855 17.1836 106.089C16.8064 106.323 16.5128 106.646 16.303 107.059C16.0931 107.47 15.9882 107.951 15.9882 108.503C15.9882 109.075 16.1568 109.529 16.4941 109.865C16.8289 110.198 17.2985 110.365 17.9031 110.365ZM26.0651 112.253H23.618L25.2968 103.847H27.6203L27.1331 106.238L26.9157 105.552C27.2905 104.873 27.7814 104.398 28.3885 104.126C28.9956 103.855 29.7226 103.72 30.5695 103.72L30.131 105.973C30.0261 105.961 29.9299 105.952 29.8425 105.947C29.7526 105.942 29.6601 105.94 29.5652 105.94C28.8432 105.94 28.2548 106.118 27.8001 106.473C27.3454 106.827 27.0394 107.399 26.882 108.19L26.0651 112.253ZM34.8716 112.38C33.9922 112.38 33.2314 112.223 32.5894 111.91C31.9448 111.599 31.4451 111.161 31.0904 110.596C30.7331 110.034 30.5545 109.373 30.5545 108.611C30.5545 107.674 30.7669 106.838 31.1916 106.104C31.6163 105.37 32.2021 104.789 32.9491 104.361C33.6961 103.934 34.5568 103.72 35.5311 103.72C36.358 103.72 37.0701 103.874 37.6672 104.182C38.2617 104.491 38.7239 104.917 39.0537 105.462C39.3835 106.009 39.5484 106.664 39.5484 107.425C39.5484 107.644 39.5359 107.863 39.5109 108.082C39.4834 108.3 39.4497 108.509 39.4097 108.708H32.4245L32.6756 107.283H38.263L37.2587 107.723C37.3411 107.253 37.3149 106.859 37.18 106.541C37.0426 106.225 36.8227 105.981 36.5204 105.809C36.2156 105.638 35.8496 105.552 35.4224 105.552C34.8878 105.552 34.4344 105.679 34.0621 105.932C33.6924 106.189 33.4126 106.541 33.2227 106.988C33.0353 107.436 32.9416 107.941 32.9416 108.503C32.9416 109.15 33.1215 109.633 33.4813 109.951C33.8435 110.267 34.3906 110.425 35.1226 110.425C35.5523 110.425 35.9658 110.358 36.363 110.223C36.7603 110.087 37.1 109.894 37.3823 109.645L38.4017 111.253C37.912 111.639 37.3611 111.924 36.749 112.108C36.1369 112.289 35.5111 112.38 34.8716 112.38ZM43.3146 112.38C42.5726 112.38 41.8743 112.297 41.2197 112.13C40.5652 111.963 40.0605 111.754 39.7058 111.503L40.6464 109.738C41.0136 109.977 41.4608 110.17 41.988 110.317C42.5176 110.463 43.0497 110.537 43.5844 110.537C44.159 110.537 44.5774 110.463 44.8398 110.317C45.0996 110.17 45.2295 109.972 45.2295 109.723C45.2295 109.524 45.1196 109.375 44.8997 109.276C44.6799 109.179 44.4026 109.099 44.0678 109.037C43.733 108.972 43.3758 108.899 42.996 108.817C42.6138 108.732 42.2528 108.615 41.913 108.466C41.5707 108.314 41.2934 108.095 41.0811 107.809C40.8662 107.523 40.7588 107.145 40.7588 106.675C40.7588 106.041 40.9387 105.504 41.2984 105.067C41.6607 104.629 42.1628 104.296 42.8049 104.067C43.4495 103.835 44.1802 103.72 44.9972 103.72C45.5818 103.72 46.1514 103.783 46.706 103.91C47.2606 104.034 47.7315 104.206 48.1188 104.425L47.2419 106.205C46.8421 105.956 46.4262 105.787 45.994 105.697C45.5593 105.61 45.1433 105.567 44.7461 105.567C44.169 105.567 43.753 105.648 43.4982 105.809C43.2409 105.971 43.1122 106.166 43.1122 106.395C43.1122 106.592 43.2196 106.745 43.4345 106.854C43.6493 106.963 43.9241 107.052 44.2589 107.119C44.5937 107.189 44.9547 107.262 45.3419 107.339C45.7292 107.419 46.0902 107.533 46.4249 107.682C46.7597 107.834 47.0345 108.048 47.2494 108.324C47.4617 108.6 47.5679 108.972 47.5679 109.44C47.5679 110.077 47.383 110.616 47.0133 111.059C46.641 111.502 46.1364 111.833 45.4993 112.052C44.8597 112.271 44.1315 112.38 43.3146 112.38ZM51.6489 112.38C50.9069 112.38 50.2086 112.297 49.554 112.13C48.902 111.963 48.3973 111.754 48.0401 111.503L48.9807 109.738C49.3479 109.977 49.7964 110.17 50.326 110.317C50.8532 110.463 51.384 110.537 51.9187 110.537C52.4933 110.537 52.9118 110.463 53.1741 110.317C53.4339 110.17 53.5638 109.972 53.5638 109.723C53.5638 109.524 53.4539 109.375 53.234 109.276C53.0167 109.179 52.7394 109.099 52.4021 109.037C52.0673 108.972 51.7101 108.899 51.3303 108.817C50.9481 108.732 50.5871 108.615 50.2473 108.466C49.9051 108.314 49.6277 108.095 49.4154 107.809C49.2005 107.523 49.0931 107.145 49.0931 106.675C49.0931 106.041 49.273 105.504 49.6327 105.067C49.995 104.629 50.4972 104.296 51.1392 104.067C51.7838 103.835 52.5145 103.72 53.3315 103.72C53.9161 103.72 54.4857 103.783 55.0403 103.91C55.5949 104.034 56.0659 104.206 56.4531 104.425L55.5762 106.205C55.1765 105.956 54.7605 105.787 54.3283 105.697C53.8936 105.61 53.4776 105.567 53.0804 105.567C52.5033 105.567 52.0873 105.648 51.8325 105.809C51.5752 105.971 51.4465 106.166 51.4465 106.395C51.4465 106.592 51.5539 106.745 51.7688 106.854C51.9836 106.963 52.2585 107.052 52.5932 107.119C52.928 107.189 53.289 107.262 53.6762 107.339C54.0635 107.419 54.4245 107.533 54.7592 107.682C55.094 107.834 55.3688 108.048 55.5837 108.324C55.796 108.6 55.9022 108.972 55.9022 109.44C55.9022 110.077 55.7173 110.616 55.3476 111.059C54.9753 111.502 54.4707 111.833 53.8336 112.052C53.1941 112.271 52.4658 112.38 51.6489 112.38ZM66.3276 112.253H63.7831L65.5556 103.376H62.0405L62.464 101.313H72.0387L71.6152 103.376H68.1151L66.3276 112.253ZM73.5002 112.253H71.0494L72.7282 103.847H75.0517L74.5645 106.238L74.3471 105.552C74.7244 104.873 75.2153 104.398 75.8199 104.126C76.427 103.855 77.1552 103.72 78.0046 103.72L77.5624 105.973C77.46 105.961 77.3638 105.952 77.2739 105.947C77.184 105.942 77.0928 105.94 77.0003 105.94C76.2783 105.94 75.6887 106.118 75.2315 106.473C74.7768 106.827 74.4708 107.399 74.3134 108.19L73.5002 112.253ZM81.4261 112.38C80.734 112.38 80.1369 112.231 79.6348 111.932C79.1326 111.636 78.7766 111.202 78.5668 110.63C78.3594 110.055 78.3394 109.347 78.5068 108.503L79.4324 103.847H81.8795L80.9839 108.347C80.8589 108.961 80.9089 109.435 81.1338 109.768C81.3586 110.101 81.7596 110.268 82.3367 110.268C82.9438 110.268 83.4534 110.092 83.8656 109.738C84.2779 109.385 84.5527 108.843 84.6901 108.111L85.552 103.847H88.0028L86.324 112.253H84.0006L84.469 109.88L84.8138 110.596C84.4165 111.211 83.9206 111.662 83.326 111.951C82.7289 112.237 82.0956 112.38 81.4261 112.38ZM93.0544 112.38C92.1875 112.38 91.4317 112.223 90.7872 111.91C90.1451 111.599 89.6455 111.161 89.2882 110.596C88.9334 110.034 88.7561 109.373 88.7561 108.611C88.7561 107.674 88.9759 106.838 89.4156 106.104C89.8553 105.37 90.4612 104.789 91.2331 104.361C92.0076 103.934 92.897 103.72 93.9013 103.72C94.8032 103.72 95.5839 103.905 96.2435 104.276C96.9005 104.646 97.3864 105.17 97.7012 105.847L95.6289 106.88C95.4515 106.482 95.2029 106.192 94.8831 106.011C94.5658 105.829 94.1874 105.738 93.7477 105.738C93.2655 105.738 92.8358 105.855 92.4585 106.089C92.0813 106.323 91.7828 106.646 91.5629 107.059C91.343 107.47 91.2331 107.946 91.2331 108.488C91.2331 109.06 91.4043 109.516 91.7465 109.854C92.0863 110.195 92.5697 110.365 93.1968 110.365C93.6265 110.365 94.0187 110.273 94.3735 110.089C94.7307 109.907 95.0293 109.624 95.2691 109.238L97.0754 110.365C96.6757 110.999 96.1235 111.493 95.419 111.846C94.712 112.202 93.9238 112.38 93.0544 112.38ZM102.49 108.768L100.324 110.567L100.857 107.552L105.391 103.847H108.58L103.855 107.768L102.49 108.768ZM100.324 112.253H97.8736L100.197 100.66H102.644L100.324 112.253ZM107.074 112.253H104.229L102.063 108.723L103.776 106.861L107.074 112.253ZM112.485 112.38C111.608 112.38 110.847 112.223 110.203 111.91C109.561 111.599 109.061 111.161 108.704 110.596C108.349 110.034 108.172 109.373 108.172 108.611C108.172 107.674 108.383 106.838 108.805 106.104C109.23 105.37 109.815 104.789 110.562 104.361C111.312 103.934 112.173 103.72 113.144 103.72C113.971 103.72 114.683 103.874 115.28 104.182C115.878 104.491 116.341 104.917 116.671 105.462C117.001 106.009 117.165 106.664 117.165 107.425C117.165 107.644 117.152 107.863 117.124 108.082C117.099 108.3 117.066 108.509 117.023 108.708H110.038L110.289 107.283H115.876L114.872 107.723C114.957 107.253 114.931 106.859 114.793 106.541C114.658 106.225 114.439 105.981 114.134 105.809C113.831 105.638 113.465 105.552 113.036 105.552C112.501 105.552 112.049 105.679 111.679 105.932C111.307 106.189 111.027 106.541 110.84 106.988C110.65 107.436 110.555 107.941 110.555 108.503C110.555 109.15 110.736 109.633 111.098 109.951C111.458 110.267 112.005 110.425 112.74 110.425C113.167 110.425 113.579 110.358 113.976 110.223C114.376 110.087 114.717 109.894 114.999 109.645L116.019 111.253C115.527 111.639 114.974 111.924 114.362 112.108C113.75 112.289 113.124 112.38 112.485 112.38ZM120.302 112.253H117.855L119.534 103.847H121.857L121.37 106.238L121.149 105.552C121.526 104.873 122.018 104.398 122.625 104.126C123.233 103.855 123.96 103.72 124.806 103.72L124.368 105.973C124.263 105.961 124.167 105.952 124.079 105.947C123.99 105.942 123.897 105.94 123.802 105.94C123.08 105.94 122.492 106.118 122.037 106.473C121.582 106.827 121.276 107.399 121.119 108.19L120.302 112.253ZM127.696 112.38C126.954 112.38 126.255 112.297 125.601 112.13C124.946 111.963 124.442 111.754 124.087 111.503L125.028 109.738C125.395 109.977 125.842 110.17 126.369 110.317C126.899 110.463 127.43 110.537 127.962 110.537C128.539 110.537 128.957 110.463 129.217 110.317C129.48 110.17 129.611 109.972 129.611 109.723C129.611 109.524 129.501 109.375 129.281 109.276C129.061 109.179 128.784 109.099 128.449 109.037C128.114 108.972 127.756 108.899 127.373 108.817C126.991 108.732 126.63 108.615 126.29 108.466C125.951 108.314 125.673 108.095 125.459 107.809C125.244 107.523 125.136 107.145 125.136 106.675C125.136 106.041 125.317 105.504 125.68 105.067C126.039 104.629 126.542 104.296 127.186 104.067C127.828 103.835 128.558 103.72 129.375 103.72C129.962 103.72 130.533 103.783 131.087 103.91C131.642 104.034 132.113 104.206 132.5 104.425L131.619 106.205C131.222 105.956 130.806 105.787 130.371 105.697C129.937 105.61 129.521 105.567 129.124 105.567C128.549 105.567 128.133 105.648 127.876 105.809C127.621 105.971 127.493 106.166 127.493 106.395C127.493 106.592 127.6 106.745 127.812 106.854C128.027 106.963 128.302 107.052 128.636 107.119C128.971 107.189 129.332 107.262 129.719 107.339C130.107 107.419 130.468 107.533 130.802 107.682C131.137 107.834 131.412 108.048 131.627 108.324C131.842 108.6 131.949 108.972 131.949 109.44C131.949 110.077 131.763 110.616 131.391 111.059C131.021 111.502 130.516 111.833 129.877 112.052C129.24 112.271 128.513 112.38 127.696 112.38Z" fill="#E97633"/>
</g>
<defs>
<clipPath id="clip0_53610_1124">
<rect width="132" height="89.7247" fill="white" transform="translate(0.50061 0.5)"/>
</clipPath>
<clipPath id="clip1_53610_1124">
<rect width="132" height="14.6267" fill="white" transform="translate(0.5 100.66)"/>
</clipPath>
</defs>
</svg>
