<svg width="62" height="31" viewBox="0 0 62 31" fill="none" xmlns="http://www.w3.org/2000/svg">
<path d="M5.62697 23.0985C5.06334 23.0985 4.61243 23.4622 4.61243 23.9167V25.4015C4.61243 25.8561 5.06334 26.2273 5.62697 26.2273H10.6997C10.5307 25.1556 10.7459 24.0672 11.3197 23.0909H5.62697V23.0985ZM38.0173 26.2273V23.0909H24.133C24.7068 24.0672 24.922 25.1556 24.753 26.2273H38.0173Z" fill="#E97633"/>
<path d="M60.14 28.9925H52.531C53.9025 28.2349 54.7949 26.9622 54.7949 25.5228C54.7949 23.1894 52.4464 21.3031 49.5625 21.3031C46.6785 21.3031 44.3301 23.197 44.3301 25.5228C44.3301 26.9622 45.2319 28.2349 46.594 28.9925H20.6855C22.057 28.2349 22.9495 26.9622 22.9495 25.5228C22.9495 23.1894 20.601 21.3031 17.717 21.3031C14.8331 21.3031 12.4846 23.197 12.4846 25.5228C12.4846 26.9622 13.3864 28.2349 14.7485 28.9925H1.86006C1.35279 28.9925 0.939453 29.3258 0.939453 29.7349C0.939453 30.144 1.35279 30.4849 1.86006 30.4849H60.1307C60.6379 30.4849 61.0513 30.1516 61.0513 29.7425C61.0513 29.3334 60.6473 28.9925 60.14 28.9925ZM49.5531 23.9622C50.6146 23.9622 51.4882 24.6591 51.4882 25.5228C51.4873 25.8303 51.3734 26.1308 51.1609 26.3863C50.9485 26.6417 50.6469 26.8406 50.2944 26.958C49.9418 27.0754 49.5541 27.1059 49.18 27.0457C48.806 26.9855 48.4624 26.8373 48.1928 26.6198C47.9231 26.4023 47.7393 26.1253 47.6647 25.8236C47.59 25.522 47.6279 25.2093 47.7734 24.925C47.9189 24.6406 48.1656 24.3975 48.4824 24.2261C48.7991 24.0548 49.1717 23.9629 49.5531 23.9622ZM17.717 23.9622C18.7785 23.9622 19.6522 24.6591 19.6522 25.5228C19.6513 25.8303 19.5374 26.1308 19.3249 26.3863C19.1124 26.6417 18.8109 26.8406 18.4583 26.958C18.1058 27.0754 17.718 27.1059 17.344 27.0457C16.9699 26.9855 16.6264 26.8373 16.3567 26.6198C16.087 26.4023 15.9032 26.1253 15.8286 25.8236C15.754 25.522 15.7918 25.2093 15.9373 24.925C16.0829 24.6406 16.3296 24.3975 16.6463 24.2261C16.963 24.0548 17.3356 23.9629 17.717 23.9622ZM30.7652 2.97731C28.9052 1.43185 24.3773 0.340942 19.0604 0.340942C13.7434 0.340942 9.22491 1.43185 7.35551 2.97731H30.7652Z" fill="#E97633"/>
<path d="M58.9188 23.9849V17.8334C58.9188 16.8486 57.9325 16.0531 56.7113 16.0531H53.9682L52.3337 9.71979C52.2249 9.34742 51.9635 9.01551 51.5919 8.7777C51.2203 8.53989 50.7602 8.41005 50.2858 8.40918H41.9722C40.8073 8.40918 39.8679 9.16675 39.8679 10.1061V26.2274H42.5358C42.4982 25.9925 42.4794 25.7652 42.4794 25.5228C42.4794 22.3713 45.6546 19.8107 49.5625 19.8107C53.4703 19.8107 56.6455 22.3713 56.6455 25.5228C56.6455 25.7501 56.6267 25.9698 56.5891 26.1895C57.9043 26.0152 58.9188 25.0986 58.9188 23.9849ZM45.2694 19.2046H43.0149C42.5076 19.2046 42.0943 18.8713 42.0943 18.4622C42.0943 18.0531 42.5076 17.7198 43.0149 17.7198H45.2694C45.7767 17.7198 46.19 18.0531 46.19 18.4622C46.19 18.8713 45.7861 19.2046 45.2694 19.2046ZM50.1355 16.0304H43.4094C42.8928 16.0304 42.4794 15.6971 42.4794 15.2804V11.2728C42.4794 10.8561 42.8928 10.5228 43.4094 10.5228H49.1022C49.5437 10.5228 49.9194 10.7728 50.0134 11.1213L51.0467 15.1289C51.0748 15.238 51.0723 15.3507 51.0396 15.459C51.0068 15.5672 50.9445 15.6682 50.8572 15.7545C50.7699 15.8409 50.6598 15.9105 50.535 15.9582C50.4101 16.0059 50.2737 16.0306 50.1355 16.0304Z" fill="#E97633"/>
<path d="M3.09072 5.49247L5.27011 18.5682C5.34268 19.0014 5.60711 19.3988 6.01458 19.687C6.42206 19.9752 6.94507 20.1349 7.48708 20.1364H8.76466V21.6061H12.588C13.875 20.5076 15.6974 19.8107 17.7171 19.8107C19.7368 19.8107 21.5592 20.5076 22.8462 21.6061H31.9771V20.1364H34.2222C35.3495 20.1364 36.3077 19.4546 36.4392 18.5455L38.7971 3.31823C38.7971 2.93187 39.1822 2.61369 39.6707 2.61369H43.6819C44.4053 2.61369 45.1004 2.21975 45.1944 1.64399C45.2241 1.48104 45.2099 1.31484 45.1527 1.15674C45.0954 0.998634 44.9965 0.852361 44.8627 0.727921C44.729 0.603481 44.5634 0.503808 44.3775 0.435716C44.1915 0.367623 43.9895 0.332716 43.7853 0.333383H37.435C36.0165 0.333383 34.8516 1.27278 34.8516 2.41672V4.43187C34.8516 4.4546 34.8328 4.46217 34.8141 4.46217H4.2086C3.52284 4.46217 2.99678 4.94702 3.09072 5.49247ZM28.5295 8.35611C28.5295 7.7652 29.1213 7.28793 29.8541 7.28793C30.5868 7.28793 31.1692 7.7652 31.1692 8.35611V16.2349C31.1692 16.8258 30.5868 17.3031 29.8541 17.3031C29.1213 17.3031 28.5295 16.8258 28.5295 16.2349V8.35611ZM22.2168 8.35611C22.2168 7.7652 22.8086 7.28793 23.5319 7.28793C24.2647 7.28793 24.8565 7.7652 24.8565 8.35611V16.2349C24.8565 16.8258 24.2647 17.3031 23.5319 17.3031C22.8086 17.3031 22.2168 16.8258 22.2168 16.2349V8.35611ZM15.9041 8.35611C15.9041 7.7652 16.4959 7.28793 17.2286 7.28793C17.9613 7.28793 18.5531 7.7652 18.5531 8.35611V16.2349C18.5531 16.8258 17.9613 17.3031 17.2286 17.3031C16.4959 17.3031 15.9041 16.8258 15.9041 16.2349V8.35611ZM9.59132 8.35611C9.59132 7.7652 10.1831 7.28793 10.9065 7.28793C11.6392 7.28793 12.231 7.7652 12.231 8.35611V16.2349C12.231 16.8258 11.6392 17.3031 10.9065 17.3031C10.1831 17.3031 9.59132 16.8258 9.59132 16.2349V8.35611Z" fill="#E97633"/>
</svg>
