<svg width="50" height="34" viewBox="0 0 50 34" fill="none" xmlns="http://www.w3.org/2000/svg">
<path d="M49.1667 22.2316V16.2208C49.1675 15.7338 49.0608 15.2526 48.8542 14.8116L45.1042 6.77498C44.9016 6.34494 44.5811 5.9812 44.18 5.72601C43.779 5.47082 43.3137 5.33465 42.8383 5.33331H35.8333C35.1703 5.33331 34.5344 5.5967 34.0656 6.06555C33.5967 6.53439 33.3333 7.17027 33.3333 7.83331V22H31.6667V2.83331C31.6667 2.17027 31.4033 1.53439 30.9344 1.06555C30.4656 0.596705 29.8297 0.333313 29.1667 0.333313H2.5C1.83696 0.333313 1.20108 0.596705 0.732235 1.06555C0.263394 1.53439 1.9801e-06 2.17027 1.9801e-06 2.83331V21.1666C-0.000626376 21.6645 0.148309 22.1511 0.427502 22.5633C0.153838 22.8658 0.00158896 23.2587 1.9801e-06 23.6666V26.1666C1.9801e-06 26.6087 0.175597 27.0326 0.488157 27.3452C0.800718 27.6577 1.22464 27.8333 1.66667 27.8333H3.33334C3.33334 29.3804 3.94792 30.8641 5.04188 31.9581C6.13584 33.0521 7.61957 33.6666 9.16667 33.6666C10.7138 33.6666 12.1975 33.0521 13.2915 31.9581C14.3854 30.8641 15 29.3804 15 27.8333H18.3333V28.6666C18.3333 29.3297 18.5967 29.9656 19.0656 30.4344C19.5344 30.9033 20.1703 31.1666 20.8333 31.1666H29.1667C29.8297 31.1666 30.4656 30.9033 30.9344 30.4344C31.4033 29.9656 31.6667 29.3297 31.6667 28.6666V27.8333H35C35 29.3804 35.6146 30.8641 36.7085 31.9581C37.8025 33.0521 39.2862 33.6666 40.8333 33.6666C42.3804 33.6666 43.8642 33.0521 44.9581 31.9581C46.0521 30.8641 46.6667 29.3804 46.6667 27.8333H48.3333C48.7754 27.8333 49.1993 27.6577 49.5119 27.3452C49.8244 27.0326 50 26.6087 50 26.1666V23.6666C49.9991 23.3754 49.9217 23.0895 49.7754 22.8376C49.6291 22.5857 49.4192 22.3768 49.1667 22.2316ZM35 7.83331C35 7.6123 35.0878 7.40034 35.2441 7.24406C35.4004 7.08778 35.6123 6.99998 35.8333 6.99998H42.8383C42.9969 7 43.1521 7.04525 43.2859 7.13042C43.4196 7.21559 43.5263 7.33715 43.5933 7.48081L47.3433 15.5166C47.447 15.7369 47.5005 15.9774 47.5 16.2208V22H35V7.83331ZM2.5 22C2.27899 22 2.06703 21.9122 1.91075 21.7559C1.75447 21.5996 1.66667 21.3877 1.66667 21.1666V20.3333H30V22H2.5ZM30 18.6666H26.6667V14.5H30V18.6666ZM8.33334 14.5V18.6666H6.66667V14.5H8.33334ZM10 14.5H13.3333V18.6666H10V14.5ZM15 14.5H16.6667V18.6666H15V14.5ZM18.3333 14.5H21.6667V18.6666H18.3333V14.5ZM23.3333 14.5H25V18.6666H23.3333V14.5ZM30 9.49998H26.6667V5.33331H30V9.49998ZM25 9.49998H23.3333V5.33331H25V9.49998ZM21.6667 9.49998H18.3333V5.33331H21.6667V9.49998ZM16.6667 9.49998H15V5.33331H16.6667V9.49998ZM13.3333 9.49998H10V5.33331H13.3333V9.49998ZM8.33334 9.49998H6.66667V5.33331H8.33334V9.49998ZM5 9.49998H1.66667V5.33331H5V9.49998ZM30 11.1666V12.8333H1.66667V11.1666H30ZM5 14.5V18.6666H1.66667V14.5H5ZM2.5 1.99998H29.1667C29.3877 1.99998 29.5996 2.08778 29.7559 2.24406C29.9122 2.40034 30 2.6123 30 2.83331V3.66665H1.66667V2.83331C1.66667 2.6123 1.75447 2.40034 1.91075 2.24406C2.06703 2.08778 2.27899 1.99998 2.5 1.99998ZM1.66667 26.1666V23.6666H5.0925C4.38562 24.3585 3.8663 25.2188 3.58334 26.1666H1.66667ZM9.16667 32C8.34258 32 7.537 31.7556 6.85179 31.2978C6.16659 30.8399 5.63254 30.1892 5.31717 29.4278C5.00181 28.6665 4.91929 27.8287 5.08006 27.0204C5.24084 26.2122 5.63767 25.4698 6.22039 24.887C6.80311 24.3043 7.54554 23.9075 8.35379 23.7467C9.16205 23.5859 9.99982 23.6685 10.7612 23.9838C11.5225 24.2992 12.1733 24.8332 12.6311 25.5184C13.089 26.2036 13.3333 27.0092 13.3333 27.8333C13.332 28.938 12.8926 29.997 12.1115 30.7781C11.3304 31.5592 10.2713 31.9987 9.16667 32ZM30 28.6666C30 28.8877 29.9122 29.0996 29.7559 29.2559C29.5996 29.4122 29.3877 29.5 29.1667 29.5H20.8333C20.6123 29.5 20.4004 29.4122 20.2441 29.2559C20.0878 29.0996 20 28.8877 20 28.6666V27.8333H30V28.6666ZM14.75 26.1666C14.4659 25.2184 13.9451 24.3581 13.2367 23.6666H36.7592C36.0523 24.3585 35.533 25.2188 35.25 26.1666H14.75ZM40.8333 32C40.0093 32 39.2037 31.7556 38.5185 31.2978C37.8333 30.8399 37.2992 30.1892 36.9838 29.4278C36.6685 28.6665 36.586 27.8287 36.7467 27.0204C36.9075 26.2122 37.3043 25.4698 37.8871 24.887C38.4698 24.3043 39.2122 23.9075 40.0205 23.7467C40.8287 23.5859 41.6665 23.6685 42.4279 23.9838C43.1892 24.2992 43.84 24.8332 44.2978 25.5184C44.7556 26.2036 45 27.0092 45 27.8333C44.9987 28.938 44.5593 29.997 43.7782 30.7781C42.997 31.5592 41.938 31.9987 40.8333 32ZM48.3333 26.1666H46.4167C46.1325 25.2184 45.6117 24.3581 44.9033 23.6666H48.3333V26.1666Z" fill="#E97633"/>
<path d="M38.0001 15.3333H43.2751C43.4992 15.3333 43.7198 15.2767 43.9163 15.1689C44.1128 15.0611 44.279 14.9054 44.3994 14.7164C44.5199 14.5273 44.5907 14.3109 44.6054 14.0873C44.6201 13.8636 44.5781 13.6398 44.4834 13.4366L42.6167 9.43663C42.5095 9.20645 42.3387 9.01171 42.1245 8.8753C41.9102 8.73889 41.6615 8.6665 41.4076 8.66663H38.0001C37.6465 8.66663 37.3073 8.8071 37.0573 9.05715C36.8072 9.3072 36.6667 9.64634 36.6667 9.99996V14C36.6667 14.3536 36.8072 14.6927 37.0573 14.9428C37.3073 15.1928 37.6465 15.3333 38.0001 15.3333ZM38.3334 10.3333H41.1959L42.7501 13.6666H38.3334V10.3333ZM40.8334 25.3333C40.339 25.3333 39.8556 25.4799 39.4445 25.7546C39.0334 26.0293 38.7129 26.4198 38.5237 26.8766C38.3345 27.3334 38.285 27.8361 38.3815 28.321C38.4779 28.806 38.716 29.2514 39.0657 29.6011C39.4153 29.9507 39.8607 30.1888 40.3457 30.2853C40.8306 30.3817 41.3333 30.3322 41.7901 30.143C42.2469 29.9538 42.6374 29.6333 42.9121 29.2222C43.1868 28.8111 43.3334 28.3277 43.3334 27.8333C43.3334 27.1703 43.07 26.5344 42.6012 26.0655C42.1323 25.5967 41.4965 25.3333 40.8334 25.3333ZM40.8334 28.6666C40.6686 28.6666 40.5075 28.6178 40.3704 28.5262C40.2334 28.4346 40.1266 28.3045 40.0635 28.1522C40.0004 27.9999 39.9839 27.8324 40.0161 27.6707C40.0482 27.5091 40.1276 27.3606 40.2442 27.244C40.3607 27.1275 40.5092 27.0481 40.6708 27.016C40.8325 26.9838 41 27.0003 41.1523 27.0634C41.3046 27.1265 41.4347 27.2333 41.5263 27.3703C41.6179 27.5074 41.6667 27.6685 41.6667 27.8333C41.6667 28.0543 41.579 28.2663 41.4227 28.4226C41.2664 28.5788 41.0544 28.6666 40.8334 28.6666ZM9.16675 25.3333C8.6723 25.3333 8.18895 25.4799 7.77782 25.7546C7.3667 26.0293 7.04627 26.4198 6.85705 26.8766C6.66783 27.3334 6.61832 27.8361 6.71479 28.321C6.81125 28.806 7.04935 29.2514 7.39898 29.6011C7.74861 29.9507 8.19407 30.1888 8.67902 30.2853C9.16398 30.3817 9.66664 30.3322 10.1235 30.143C10.5803 29.9538 10.9707 29.6333 11.2454 29.2222C11.5201 28.8111 11.6667 28.3277 11.6667 27.8333C11.6667 27.1703 11.4034 26.5344 10.9345 26.0655C10.4657 25.5967 9.82979 25.3333 9.16675 25.3333ZM9.16675 28.6666C9.00193 28.6666 8.84082 28.6178 8.70377 28.5262C8.56673 28.4346 8.45992 28.3045 8.39685 28.1522C8.33378 27.9999 8.31727 27.8324 8.34943 27.6707C8.38158 27.5091 8.46095 27.3606 8.57749 27.244C8.69404 27.1275 8.84252 27.0481 9.00417 27.016C9.16583 26.9838 9.33338 27.0003 9.48565 27.0634C9.63792 27.1265 9.76807 27.2333 9.85964 27.3703C9.95121 27.5074 10.0001 27.6685 10.0001 27.8333C10.0001 28.0543 9.91229 28.2663 9.75601 28.4226C9.59972 28.5788 9.38776 28.6666 9.16675 28.6666ZM39.1667 17H37.5001C37.2791 17 37.0671 17.0878 36.9108 17.244C36.7545 17.4003 36.6667 17.6123 36.6667 17.8333C36.6667 18.0543 36.7545 18.2663 36.9108 18.4225C37.0671 18.5788 37.2791 18.6666 37.5001 18.6666H39.1667C39.3878 18.6666 39.5997 18.5788 39.756 18.4225C39.9123 18.2663 40.0001 18.0543 40.0001 17.8333C40.0001 17.6123 39.9123 17.4003 39.756 17.244C39.5997 17.0878 39.3878 17 39.1667 17Z" fill="#E97633"/>
</svg>
