<svg width="22" height="16" viewBox="0 0 22 16" fill="none" xmlns="http://www.w3.org/2000/svg">
<path d="M18.8751 4.44444V3.55556L16.2501 5.33333L13.6251 3.55556V4.44444L16.2501 6.22222L18.8751 4.44444ZM19.7501 0H2.25012C1.78599 0 1.34087 0.187301 1.01269 0.520699C0.684497 0.854097 0.500122 1.30628 0.500122 1.77778L0.500122 14.2222C0.500122 14.6937 0.684497 15.1459 1.01269 15.4793C1.34087 15.8127 1.78599 16 2.25012 16H19.7501C20.2143 16 20.6594 15.8127 20.9876 15.4793C21.3157 15.1459 21.5001 14.6937 21.5001 14.2222V1.77778C21.5001 1.30628 21.3157 0.854097 20.9876 0.520699C20.6594 0.187301 20.2143 0 19.7501 0ZM7.50012 2.66667C8.19632 2.66667 8.86399 2.94762 9.35628 3.44772C9.84856 3.94781 10.1251 4.62609 10.1251 5.33333C10.1251 6.04058 9.84856 6.71885 9.35628 7.21895C8.86399 7.71905 8.19632 8 7.50012 8C6.80393 8 6.13625 7.71905 5.64397 7.21895C5.15168 6.71885 4.87512 6.04058 4.87512 5.33333C4.87512 4.62609 5.15168 3.94781 5.64397 3.44772C6.13625 2.94762 6.80393 2.66667 7.50012 2.66667ZM12.7501 13.3333H2.25012V12.4444C2.25012 10.6667 5.75012 9.68889 7.50012 9.68889C9.25012 9.68889 12.7501 10.6667 12.7501 12.4444V13.3333ZM19.7501 8H12.7501V2.66667H19.7501" fill="#FCFAF9"/>
</svg>
