<svg width="21" height="16" viewBox="0 0 21 16" fill="none" xmlns="http://www.w3.org/2000/svg">
<path d="M10.5001 0C6.71679 0 3.28346 1.49895 0.741789 3.93263C0.591789 4.08421 0.500122 4.29474 0.500122 4.53053C0.500122 4.76632 0.591789 4.97684 0.741789 5.12842L2.80846 7.21684C2.95846 7.36842 3.16679 7.46105 3.41679 7.46105C3.62512 7.46105 3.83346 7.36842 3.98346 7.22526C4.64179 6.60211 5.39179 6.08 6.20012 5.66737C6.47512 5.53263 6.66679 5.24632 6.66679 4.90947V2.29895C7.87512 1.89474 9.15845 1.68421 10.5001 1.68421C11.8251 1.68421 13.1168 1.89474 14.3251 2.29053V4.90105C14.3251 5.22947 14.5168 5.52421 14.7918 5.65895C15.6085 6.07158 16.3335 6.60211 17.0168 7.21684C17.1668 7.36842 17.3751 7.45263 17.5835 7.45263C17.8335 7.45263 18.0418 7.36 18.1918 7.20842L20.2585 5.12C20.4085 4.96842 20.5001 4.75789 20.5001 4.52211C20.5001 4.28632 20.4001 4.08421 20.2501 3.93263C17.7085 1.49895 14.2751 0 10.5001 0ZM8.00012 3.36842V5.89474C8.00012 5.89474 3.00012 10.1053 3.00012 12.6316V16H18.0001V12.6316C18.0001 10.1053 13.0001 5.89474 13.0001 5.89474V3.36842H11.3335V5.05263H9.66679V3.36842H8.00012ZM10.5001 7.57895C11.3842 7.57895 12.232 7.93383 12.8571 8.56553C13.4823 9.19724 13.8335 10.054 13.8335 10.9474C13.8335 11.8407 13.4823 12.6975 12.8571 13.3292C12.232 13.9609 11.3842 14.3158 10.5001 14.3158C9.61607 14.3158 8.76822 13.9609 8.1431 13.3292C7.51798 12.6975 7.16679 11.8407 7.16679 10.9474C7.16679 10.054 7.51798 9.19724 8.1431 8.56553C8.76822 7.93383 9.61607 7.57895 10.5001 7.57895ZM10.5001 8.8421C9.94759 8.8421 9.41768 9.06391 9.02698 9.45872C8.63628 9.85354 8.41679 10.389 8.41679 10.9474C8.41679 11.5057 8.63628 12.0412 9.02698 12.436C9.41768 12.8308 9.94759 13.0526 10.5001 13.0526C11.0527 13.0526 11.5826 12.8308 11.9733 12.436C12.364 12.0412 12.5835 11.5057 12.5835 10.9474C12.5835 10.389 12.364 9.85354 11.9733 9.45872C11.5826 9.06391 11.0527 8.8421 10.5001 8.8421Z" fill="#FCFAF9"/>
</svg>
