<svg width="64" height="30" viewBox="0 0 64 30" fill="none" xmlns="http://www.w3.org/2000/svg">
<path d="M7.5625 22.9688C8.19293 22.9688 8.8092 23.1557 9.33338 23.5059C9.85756 23.8562 10.2661 24.354 10.5074 24.9364C10.7486 25.5189 10.8117 26.1598 10.6888 26.7781C10.5658 27.3964 10.2622 27.9644 9.8164 28.4102C9.37062 28.8559 8.80266 29.1595 8.18435 29.2825C7.56604 29.4055 6.92514 29.3424 6.3427 29.1011C5.76026 28.8599 5.26244 28.4513 4.91219 27.9271C4.56194 27.4029 4.375 26.7867 4.375 26.1563C4.375 25.3109 4.71083 24.5001 5.3086 23.9023C5.90637 23.3046 6.71712 22.9688 7.5625 22.9688ZM7.5625 27.75C7.87771 27.75 8.18585 27.6565 8.44794 27.4814C8.71003 27.3063 8.91431 27.0574 9.03493 26.7662C9.15556 26.4749 9.18712 26.1545 9.12563 25.8453C9.06413 25.5362 8.91234 25.2522 8.68945 25.0293C8.46656 24.8064 8.18258 24.6546 7.87343 24.5931C7.56427 24.5316 7.24382 24.5632 6.9526 24.6838C6.66138 24.8044 6.41247 25.0087 6.23735 25.2708C6.06222 25.5329 5.96875 25.841 5.96875 26.1563C5.96875 26.5789 6.13666 26.9843 6.43555 27.2832C6.73443 27.5821 7.13981 27.75 7.5625 27.75ZM16.0625 22.9688C16.6929 22.9688 17.3092 23.1557 17.8334 23.5059C18.3576 23.8562 18.7661 24.354 19.0074 24.9364C19.2486 25.5189 19.3117 26.1598 19.1888 26.7781C19.0658 27.3964 18.7622 27.9644 18.3164 28.4102C17.8706 28.8559 17.3027 29.1595 16.6843 29.2825C16.066 29.4055 15.4251 29.3424 14.8427 29.1011C14.2603 28.8599 13.7624 28.4513 13.4122 27.9271C13.0619 27.4029 12.875 26.7867 12.875 26.1563C12.875 25.3109 13.2108 24.5001 13.8086 23.9023C14.4064 23.3046 15.2171 22.9688 16.0625 22.9688ZM16.0625 27.75C16.3777 27.75 16.6858 27.6565 16.9479 27.4814C17.21 27.3063 17.4143 27.0574 17.5349 26.7662C17.6556 26.4749 17.6871 26.1545 17.6256 25.8453C17.5641 25.5362 17.4123 25.2522 17.1895 25.0293C16.9666 24.8064 16.6826 24.6546 16.3734 24.5931C16.0643 24.5316 15.7438 24.5632 15.4526 24.6838C15.1614 24.8044 14.9125 25.0087 14.7373 25.2708C14.5622 25.5329 14.4688 25.841 14.4688 26.1563C14.4688 26.5789 14.6367 26.9843 14.9355 27.2832C15.2344 27.5821 15.6398 27.75 16.0625 27.75ZM56.4375 22.9688C57.0679 22.9688 57.6842 23.1557 58.2084 23.5059C58.7326 23.8562 59.1411 24.354 59.3824 24.9364C59.6236 25.5189 59.6867 26.1598 59.5638 26.7781C59.4408 27.3964 59.1372 27.9644 58.6914 28.4102C58.2456 28.8559 57.6777 29.1595 57.0593 29.2825C56.441 29.4055 55.8001 29.3424 55.2177 29.1011C54.6353 28.8599 54.1374 28.4513 53.7872 27.9271C53.4369 27.4029 53.25 26.7867 53.25 26.1563C53.25 25.3109 53.5858 24.5001 54.1836 23.9023C54.7814 23.3046 55.5921 22.9688 56.4375 22.9688ZM56.4375 27.75C56.7527 27.75 57.0608 27.6565 57.3229 27.4814C57.585 27.3063 57.7893 27.0574 57.9099 26.7662C58.0306 26.4749 58.0621 26.1545 58.0006 25.8453C57.9391 25.5362 57.7873 25.2522 57.5645 25.0293C57.3416 24.8064 57.0576 24.6546 56.7484 24.5931C56.4393 24.5316 56.1188 24.5632 55.8276 24.6838C55.5364 24.8044 55.2875 25.0087 55.1123 25.2708C54.9372 25.5329 54.8437 25.841 54.8437 26.1563C54.8437 26.5789 55.0117 26.9843 55.3105 27.2832C55.6094 27.5821 56.0148 27.75 56.4375 27.75ZM33.0625 22.9688C33.6929 22.9688 34.3092 23.1557 34.8334 23.5059C35.3576 23.8562 35.7661 24.354 36.0074 24.9364C36.2486 25.5189 36.3117 26.1598 36.1888 26.7781C36.0658 27.3964 35.7622 27.9644 35.3164 28.4102C34.8706 28.8559 34.3027 29.1595 33.6843 29.2825C33.066 29.4055 32.4251 29.3424 31.8427 29.1011C31.2603 28.8599 30.7624 28.4513 30.4122 27.9271C30.0619 27.4029 29.875 26.7867 29.875 26.1563C29.875 25.3109 30.2108 24.5001 30.8086 23.9023C31.4064 23.3046 32.2171 22.9688 33.0625 22.9688ZM33.0625 27.75C33.3777 27.75 33.6858 27.6565 33.9479 27.4814C34.21 27.3063 34.4143 27.0574 34.5349 26.7662C34.6556 26.4749 34.6871 26.1545 34.6256 25.8453C34.5641 25.5362 34.4123 25.2522 34.1894 25.0293C33.9666 24.8064 33.6826 24.6546 33.3734 24.5931C33.0643 24.5316 32.7438 24.5632 32.4526 24.6838C32.1614 24.8044 31.9125 25.0087 31.7373 25.2708C31.5622 25.5329 31.4687 25.841 31.4687 26.1563C31.4687 26.5789 31.6367 26.9843 31.9355 27.2832C32.2344 27.5821 32.6398 27.75 33.0625 27.75ZM41.5625 22.9688C42.1929 22.9688 42.8092 23.1557 43.3334 23.5059C43.8576 23.8562 44.2661 24.354 44.5074 24.9364C44.7486 25.5189 44.8117 26.1598 44.6888 26.7781C44.5658 27.3964 44.2622 27.9644 43.8164 28.4102C43.3706 28.8559 42.8027 29.1595 42.1843 29.2825C41.566 29.4055 40.9251 29.3424 40.3427 29.1011C39.7603 28.8599 39.2624 28.4513 38.9122 27.9271C38.5619 27.4029 38.375 26.7867 38.375 26.1563C38.375 25.3109 38.7108 24.5001 39.3086 23.9023C39.9064 23.3046 40.7171 22.9688 41.5625 22.9688ZM41.5625 27.75C41.8777 27.75 42.1858 27.6565 42.4479 27.4814C42.71 27.3063 42.9143 27.0574 43.0349 26.7662C43.1556 26.4749 43.1871 26.1545 43.1256 25.8453C43.0641 25.5362 42.9123 25.2522 42.6894 25.0293C42.4666 24.8064 42.1826 24.6546 41.8734 24.5931C41.5643 24.5316 41.2438 24.5632 40.9526 24.6838C40.6614 24.8044 40.4125 25.0087 40.2373 25.2708C40.0622 25.5329 39.9687 25.841 39.9687 26.1563C39.9687 26.5789 40.1367 26.9843 40.4355 27.2832C40.7344 27.5821 41.1398 27.75 41.5625 27.75Z" fill="#E97633"/>
<path d="M2.25 0.65625H47.9375V24.0312H45.2069C44.8306 23.3971 44.2957 22.8717 43.6549 22.5068C43.0141 22.1419 42.2893 21.95 41.5519 21.95C40.8144 21.95 40.0897 22.1419 39.4489 22.5068C38.808 22.8717 38.2732 23.3971 37.8969 24.0312H36.7069C36.3312 23.3946 35.796 22.867 35.1541 22.5004C34.5122 22.1338 33.7858 21.941 33.0466 21.941C32.3074 21.941 31.5809 22.1338 30.939 22.5004C30.2971 22.867 29.7619 23.3946 29.3863 24.0312H19.7281C19.3525 23.3946 18.8173 22.867 18.1754 22.5004C17.5334 22.1338 16.807 21.941 16.0678 21.941C15.3286 21.941 14.6022 22.1338 13.9603 22.5004C13.3184 22.867 12.7832 23.3946 12.4075 24.0312H11.2281C10.8525 23.3946 10.3173 22.867 9.67536 22.5004C9.03344 22.1338 8.30702 21.941 7.56781 21.941C6.82861 21.941 6.10218 22.1338 5.46027 22.5004C4.81836 22.867 4.28315 23.3946 3.9075 24.0312H2.25V0.65625ZM20.1744 25.0938H28.9506C28.7382 25.7862 28.7382 26.5263 28.9506 27.2188H20.1744C20.3728 26.5243 20.3728 25.7882 20.1744 25.0938Z" fill="#E97633"/>
<path d="M45.6531 25.0938H49V8.09375H49.8819V7.03125L57.3194 7.945C57.6928 7.99052 58.0466 8.13735 58.3425 8.36959C58.6384 8.60183 58.8652 8.91062 58.9981 9.2625L61.0063 14.575C61.5 15.9006 61.7519 17.3041 61.75 18.7188V25.0938H62.8125C63.0943 25.0938 63.3645 25.2057 63.5638 25.4049C63.7631 25.6042 63.875 25.8745 63.875 26.1562C63.875 26.438 63.7631 26.7083 63.5638 26.9076C63.3645 27.1068 63.0943 27.2188 62.8125 27.2188H60.5388C60.632 26.8721 60.682 26.5152 60.6875 26.1562C60.6875 25.0291 60.2397 23.9481 59.4427 23.151C58.6457 22.354 57.5647 21.9062 56.4375 21.9062C55.3103 21.9062 54.2293 22.354 53.4323 23.151C52.6353 23.9481 52.1875 25.0291 52.1875 26.1562C52.193 26.5152 52.243 26.8721 52.3363 27.2188H45.6531C45.8515 26.5243 45.8515 25.7882 45.6531 25.0938ZM51.125 15.5312L58.3925 17.3269C58.5245 17.3577 58.6623 17.3523 58.7915 17.3114C58.9207 17.2705 59.0365 17.1956 59.1267 17.0945C59.2169 16.9934 59.2782 16.8699 59.3042 16.7369C59.3302 16.6039 59.3199 16.4664 59.2744 16.3387L57.3512 10.9519C57.2792 10.73 57.1361 10.538 56.9441 10.4055C56.7521 10.273 56.5218 10.2073 56.2887 10.2188H51.125V15.5312ZM1.1875 25.0938H3.46125C3.26284 25.7882 3.26284 26.5243 3.46125 27.2188H1.1875C0.905708 27.2188 0.635456 27.1068 0.436199 26.9076C0.236942 26.7083 0.125 26.438 0.125 26.1562C0.125 25.8745 0.236942 25.6042 0.436199 25.4049C0.635456 25.2057 0.905708 25.0938 1.1875 25.0938Z" fill="#E97633"/>
</svg>
